<?xml version="1.0" encoding="UTF-8" standalone="no"?><svg xmlns="http://www.w3.org/2000/svg" xmlns:xlink="http://www.w3.org/1999/xlink" contentScriptType="application/ecmascript" contentStyleType="text/css" height="485px" preserveAspectRatio="none" style="width:343px;height:485px;" version="1.1" viewBox="0 0 343 485" width="343px" zoomAndPan="magnify"><defs><filter height="300%" id="f1w63278r0v0vr" width="300%" x="-1" y="-1"><feGaussianBlur result="blurOut" stdDeviation="2.0"/><feColorMatrix in="blurOut" result="blurOut2" type="matrix" values="0 0 0 0 0 0 0 0 0 0 0 0 0 0 0 0 0 0 .4 0"/><feOffset dx="4.0" dy="4.0" in="blurOut2" result="blurOut3"/><feBlend in="SourceGraphic" in2="blurOut3" mode="normal"/></filter></defs><g><!--MD5=[301ced20e5cdc9b4abcb52ca6a905441]
class AbstractShape--><rect fill="#FEFECE" filter="url(#f1w63278r0v0vr)" height="216.416" id="AbstractShape" style="stroke: #A80036; stroke-width: 1.5;" width="326" x="6" y="8"/><ellipse cx="123.25" cy="24" fill="#ADD1B2" rx="11" ry="11" style="stroke: #A80036; stroke-width: 1.0;"/><path d="M125.7231,30.1431 Q125.1421,30.4419 124.5029,30.5913 Q123.8638,30.7407 123.1582,30.7407 Q120.6514,30.7407 119.3315,29.0889 Q118.0117,27.437 118.0117,24.3159 Q118.0117,21.1865 119.3315,19.5347 Q120.6514,17.8828 123.1582,17.8828 Q123.8638,17.8828 124.5112,18.0322 Q125.1587,18.1816 125.7231,18.4805 L125.7231,21.2031 Q125.0923,20.6221 124.4988,20.3523 Q123.9053,20.0825 123.2744,20.0825 Q121.9297,20.0825 121.2449,21.1492 Q120.5601,22.2158 120.5601,24.3159 Q120.5601,26.4077 121.2449,27.4744 Q121.9297,28.541 123.2744,28.541 Q123.9053,28.541 124.4988,28.2712 Q125.0923,28.0015 125.7231,27.4204 Z "/><text fill="#000000" font-family="sans-serif" font-size="12" lengthAdjust="spacingAndGlyphs" textLength="83" x="143.75" y="28.5352">AbstractShape</text><line style="stroke: #A80036; stroke-width: 1.5;" x1="7" x2="331" y1="40" y2="40"/><rect fill="none" height="6" style="stroke: #C82930; stroke-width: 1.0;" width="6" x="14" y="48"/><text fill="#000000" font-family="sans-serif" font-size="11" lengthAdjust="spacingAndGlyphs" textLength="24" x="26" y="54.6348">int x</text><rect fill="none" height="6" style="stroke: #C82930; stroke-width: 1.0;" width="6" x="14" y="60.9551"/><text fill="#000000" font-family="sans-serif" font-size="11" lengthAdjust="spacingAndGlyphs" textLength="23" x="26" y="67.5898">int y</text><line style="stroke: #A80036; stroke-width: 1.5;" x1="7" x2="331" y1="73.9102" y2="73.9102"/><ellipse cx="17" cy="84.9102" fill="#84BE84" rx="3" ry="3" style="stroke: #038048; stroke-width: 1.0;"/><text fill="#000000" font-family="sans-serif" font-size="11" lengthAdjust="spacingAndGlyphs" textLength="293" x="26" y="88.5449">friend bool operator == (const Shape&amp;, const Shape&amp;)</text><ellipse cx="17" cy="97.8652" fill="#84BE84" rx="3" ry="3" style="stroke: #038048; stroke-width: 1.0;"/><text fill="#000000" font-family="sans-serif" font-size="11" lengthAdjust="spacingAndGlyphs" textLength="259" x="26" y="101.5">friend istream&amp; operator &gt;&gt; (istream&amp;, Shape&amp;)</text><ellipse cx="17" cy="110.8203" fill="#84BE84" rx="3" ry="3" style="stroke: #038048; stroke-width: 1.0;"/><text fill="#000000" font-family="sans-serif" font-size="11" lengthAdjust="spacingAndGlyphs" textLength="300" x="26" y="114.4551">friend ostream&amp; operator &lt;&lt; (ostream&amp;, const Shape&amp;)</text><polygon fill="#FFFF44" points="17,118.7754,21,122.7754,17,126.7754,13,122.7754" style="stroke: #B38D22; stroke-width: 1.0;"/><text fill="#000000" font-family="sans-serif" font-size="11" font-style="italic" lengthAdjust="spacingAndGlyphs" textLength="216" x="26" y="127.4102">virtual bool equals (const Shape&amp;) const</text><polygon fill="#FFFF44" points="17,131.7305,21,135.7305,17,139.7305,13,135.7305" style="stroke: #B38D22; stroke-width: 1.0;"/><text fill="#000000" font-family="sans-serif" font-size="11" font-style="italic" lengthAdjust="spacingAndGlyphs" textLength="171" x="26" y="140.3652">virtual istream&amp; read (istream&amp;)</text><polygon fill="#FFFF44" points="17,144.6855,21,148.6855,17,152.6855,13,148.6855" style="stroke: #B38D22; stroke-width: 1.0;"/><text fill="#000000" font-family="sans-serif" font-size="11" font-style="italic" lengthAdjust="spacingAndGlyphs" textLength="214" x="26" y="153.3203">virtual ostream&amp; write (ostream&amp;) const</text><ellipse cx="17" cy="162.6406" fill="#84BE84" rx="3" ry="3" style="stroke: #038048; stroke-width: 1.0;"/><text fill="#000000" font-family="sans-serif" font-size="11" lengthAdjust="spacingAndGlyphs" textLength="142" x="26" y="166.2754">AbstractShape (int x, int y)</text><ellipse cx="17" cy="175.5957" fill="#84BE84" rx="3" ry="3" style="stroke: #038048; stroke-width: 1.0;"/><text fill="#000000" font-family="sans-serif" font-size="11" lengthAdjust="spacingAndGlyphs" textLength="133" x="26" y="179.2305">virtual ~AbstractShape ()</text><ellipse cx="17" cy="188.5508" fill="#84BE84" rx="3" ry="3" style="stroke: #038048; stroke-width: 1.0;"/><text fill="#000000" font-family="sans-serif" font-size="11" font-style="italic" lengthAdjust="spacingAndGlyphs" textLength="144" x="26" y="192.1855">virtual double area () const</text><ellipse cx="17" cy="201.5059" fill="#84BE84" rx="3" ry="3" style="stroke: #038048; stroke-width: 1.0;"/><text fill="#000000" font-family="sans-serif" font-size="11" font-style="italic" lengthAdjust="spacingAndGlyphs" textLength="196" x="26" y="205.1406">virtual AbstractShape* clone () const</text><ellipse cx="17" cy="214.4609" fill="#84BE84" rx="3" ry="3" style="stroke: #038048; stroke-width: 1.0;"/><text fill="#000000" font-family="sans-serif" font-size="11" lengthAdjust="spacingAndGlyphs" textLength="119" x="26" y="218.0957">void move (int x, int y)</text><!--MD5=[a7f9118cae7621dd25d25149752faef0]
class Circle--><rect fill="#FEFECE" filter="url(#f1w63278r0v0vr)" height="190.5059" id="Circle" style="stroke: #A80036; stroke-width: 1.5;" width="325" x="6.5" y="284"/><ellipse cx="148.75" cy="300" fill="#ADD1B2" rx="11" ry="11" style="stroke: #A80036; stroke-width: 1.0;"/><path d="M151.2231,306.1431 Q150.6421,306.4419 150.0029,306.5913 Q149.3638,306.7407 148.6582,306.7407 Q146.1514,306.7407 144.8315,305.0889 Q143.5117,303.437 143.5117,300.3159 Q143.5117,297.1865 144.8315,295.5347 Q146.1514,293.8828 148.6582,293.8828 Q149.3638,293.8828 150.0112,294.0322 Q150.6587,294.1816 151.2231,294.4805 L151.2231,297.2031 Q150.5923,296.6221 149.9988,296.3523 Q149.4053,296.0825 148.7744,296.0825 Q147.4297,296.0825 146.7449,297.1492 Q146.0601,298.2158 146.0601,300.3159 Q146.0601,302.4077 146.7449,303.4744 Q147.4297,304.541 148.7744,304.541 Q149.4053,304.541 149.9988,304.2712 Q150.5923,304.0015 151.2231,303.4204 Z "/><text fill="#000000" font-family="sans-serif" font-size="12" lengthAdjust="spacingAndGlyphs" textLength="32" x="169.25" y="304.5352">Circle</text><line style="stroke: #A80036; stroke-width: 1.5;" x1="7.5" x2="330.5" y1="316" y2="316"/><rect fill="none" height="6" style="stroke: #C82930; stroke-width: 1.0;" width="6" x="14.5" y="324"/><text fill="#000000" font-family="sans-serif" font-size="11" lengthAdjust="spacingAndGlyphs" textLength="22" x="26.5" y="330.6348">int r</text><line style="stroke: #A80036; stroke-width: 1.5;" x1="7.5" x2="330.5" y1="336.9551" y2="336.9551"/><ellipse cx="17.5" cy="347.9551" fill="#84BE84" rx="3" ry="3" style="stroke: #038048; stroke-width: 1.0;"/><text fill="#000000" font-family="sans-serif" font-size="11" lengthAdjust="spacingAndGlyphs" textLength="291" x="26.5" y="351.5898">friend bool operator == (const Circle&amp;, const Circle&amp;)</text><ellipse cx="17.5" cy="360.9102" fill="#84BE84" rx="3" ry="3" style="stroke: #038048; stroke-width: 1.0;"/><text fill="#000000" font-family="sans-serif" font-size="11" lengthAdjust="spacingAndGlyphs" textLength="258" x="26.5" y="364.5449">friend istream&amp; operator &gt;&gt; (istream&amp;, Circle&amp;)</text><ellipse cx="17.5" cy="373.8652" fill="#84BE84" rx="3" ry="3" style="stroke: #038048; stroke-width: 1.0;"/><text fill="#000000" font-family="sans-serif" font-size="11" lengthAdjust="spacingAndGlyphs" textLength="299" x="26.5" y="377.5">friend ostream&amp; operator &lt;&lt; (ostream&amp;, const Circle&amp;)</text><polygon fill="#FFFF44" points="17.5,381.8203,21.5,385.8203,17.5,389.8203,13.5,385.8203" style="stroke: #B38D22; stroke-width: 1.0;"/><text fill="#000000" font-family="sans-serif" font-size="11" lengthAdjust="spacingAndGlyphs" textLength="227" x="26.5" y="390.4551">bool equals (const Shape&amp;) const override</text><polygon fill="#FFFF44" points="17.5,394.7754,21.5,398.7754,17.5,402.7754,13.5,398.7754" style="stroke: #B38D22; stroke-width: 1.0;"/><text fill="#000000" font-family="sans-serif" font-size="11" lengthAdjust="spacingAndGlyphs" textLength="182" x="26.5" y="403.4102">istream&amp; read (istream&amp;) override</text><polygon fill="#FFFF44" points="17.5,407.7305,21.5,411.7305,17.5,415.7305,13.5,411.7305" style="stroke: #B38D22; stroke-width: 1.0;"/><text fill="#000000" font-family="sans-serif" font-size="11" lengthAdjust="spacingAndGlyphs" textLength="225" x="26.5" y="416.3652">ostream&amp; write (ostream&amp;) const override</text><ellipse cx="17.5" cy="425.6855" fill="#84BE84" rx="3" ry="3" style="stroke: #038048; stroke-width: 1.0;"/><text fill="#000000" font-family="sans-serif" font-size="11" lengthAdjust="spacingAndGlyphs" textLength="123" x="26.5" y="429.3203">Circle (int x, int y, int r)</text><ellipse cx="17.5" cy="438.6406" fill="#84BE84" rx="3" ry="3" style="stroke: #038048; stroke-width: 1.0;"/><text fill="#000000" font-family="sans-serif" font-size="11" lengthAdjust="spacingAndGlyphs" textLength="155" x="26.5" y="442.2754">double area () const override</text><ellipse cx="17.5" cy="451.5957" fill="#84BE84" rx="3" ry="3" style="stroke: #038048; stroke-width: 1.0;"/><text fill="#000000" font-family="sans-serif" font-size="11" lengthAdjust="spacingAndGlyphs" textLength="160" x="26.5" y="455.2305">Circle* clone () const override</text><ellipse cx="17.5" cy="464.5508" fill="#84BE84" rx="3" ry="3" style="stroke: #038048; stroke-width: 1.0;"/><text fill="#000000" font-family="sans-serif" font-size="11" lengthAdjust="spacingAndGlyphs" textLength="95" x="26.5" y="468.1855">int radius () const</text><!--MD5=[a0fcc74742a1226d5188a9ffce0f6051]
reverse link AbstractShape to Circle--><path d="M169,244.2 C169,257.5 169,270.85 169,283.71 " fill="none" id="AbstractShape&lt;-Circle" style="stroke: #A80036; stroke-width: 1.0;"/><polygon fill="none" points="162,244.12,169,224.12,176,244.12,162,244.12" style="stroke: #A80036; stroke-width: 1.0;"/><!--MD5=[26ed543391c95d720c87b398d2ea6ceb]
@startuml
AbstractShape <|- - Circle

class AbstractShape {
    - int x
    - int y
    + friend bool operator == (const Shape&, const Shape&)
    + friend istream& operator >> (istream&, Shape&)
    + friend ostream& operator << (ostream&, const Shape&)
    # {abstract} virtual bool equals (const Shape&) const
    # {abstract} virtual istream& read (istream&)
    # {abstract} virtual ostream& write (ostream&) const
    + AbstractShape (int x, int y)
    + virtual ~AbstractShape ()
    + {abstract} virtual double area () const
    + {abstract} virtual AbstractShape* clone () const
    + void move (int x, int y)
    }

class Circle {
    - int r
    + friend bool operator == (const Circle&, const Circle&)
    + friend istream& operator >> (istream&, Circle&)
    + friend ostream& operator << (ostream&, const Circle&)
    # bool equals (const Shape&) const override
    # istream& read (istream&) override
    # ostream& write (ostream&) const override
    + Circle (int x, int y, int r)
    + double area () const override
    + Circle* clone () const override
    + int radius () const
    }

@enduml

PlantUML version 1.2020.07(Sun Apr 19 06:42:40 CDT 2020)
(GPL source distribution)
Java Runtime: OpenJDK Runtime Environment
JVM: OpenJDK 64-Bit Server VM
Java Version: 13.0.2+8
Operating System: Mac OS X
Default Encoding: UTF-8
Language: en
Country: US
--></g></svg>