<?xml version="1.0" encoding="UTF-8" standalone="no"?><svg xmlns="http://www.w3.org/2000/svg" xmlns:xlink="http://www.w3.org/1999/xlink" contentScriptType="application/ecmascript" contentStyleType="text/css" height="105px" preserveAspectRatio="none" style="width:263px;height:105px;" version="1.1" viewBox="0 0 263 105" width="263px" zoomAndPan="magnify"><defs><filter height="300%" id="fwnzpmc80whcx" width="300%" x="-1" y="-1"><feGaussianBlur result="blurOut" stdDeviation="2.0"/><feColorMatrix in="blurOut" result="blurOut2" type="matrix" values="0 0 0 0 0 0 0 0 0 0 0 0 0 0 0 0 0 0 .4 0"/><feOffset dx="4.0" dy="4.0" in="blurOut2" result="blurOut3"/><feBlend in="SourceGraphic" in2="blurOut3" mode="normal"/></filter></defs><g><!--MD5=[1a47157467d69c83c0a10e9152875283]
class Stack--><rect fill="#FEFECE" filter="url(#fwnzpmc80whcx)" height="86.8652" id="Stack" style="stroke: #A80036; stroke-width: 1.5;" width="90" x="6" y="8"/><ellipse cx="33.6" cy="24" fill="#ADD1B2" rx="11" ry="11" style="stroke: #A80036; stroke-width: 1.0;"/><path d="M36.0731,30.1431 Q35.4921,30.4419 34.8529,30.5913 Q34.2138,30.7407 33.5082,30.7407 Q31.0014,30.7407 29.6815,29.0889 Q28.3617,27.437 28.3617,24.3159 Q28.3617,21.1865 29.6815,19.5347 Q31.0014,17.8828 33.5082,17.8828 Q34.2138,17.8828 34.8612,18.0322 Q35.5087,18.1816 36.0731,18.4805 L36.0731,21.2031 Q35.4423,20.6221 34.8488,20.3523 Q34.2553,20.0825 33.6244,20.0825 Q32.2797,20.0825 31.5949,21.1492 Q30.9101,22.2158 30.9101,24.3159 Q30.9101,26.4077 31.5949,27.4744 Q32.2797,28.541 33.6244,28.541 Q34.2553,28.541 34.8488,28.2712 Q35.4423,28.0015 36.0731,27.4204 Z "/><text fill="#000000" font-family="sans-serif" font-size="12" lengthAdjust="spacingAndGlyphs" textLength="30" x="50.4" y="28.5352">Stack</text><line style="stroke: #A80036; stroke-width: 1.5;" x1="7" x2="95" y1="40" y2="40"/><rect fill="none" height="6" style="stroke: #C82930; stroke-width: 1.0;" width="6" x="14" y="48"/><text fill="#000000" font-family="sans-serif" font-size="11" lengthAdjust="spacingAndGlyphs" textLength="50" x="26" y="54.6348">Vector _c</text><line style="stroke: #A80036; stroke-width: 1.5;" x1="7" x2="95" y1="60.9551" y2="60.9551"/><ellipse cx="17" cy="71.9551" fill="#84BE84" rx="3" ry="3" style="stroke: #038048; stroke-width: 1.0;"/><text fill="#000000" font-family="sans-serif" font-size="11" lengthAdjust="spacingAndGlyphs" textLength="64" x="26" y="75.5898">void push ()</text><ellipse cx="17" cy="84.9102" fill="#84BE84" rx="3" ry="3" style="stroke: #038048; stroke-width: 1.0;"/><text fill="#000000" font-family="sans-serif" font-size="11" lengthAdjust="spacingAndGlyphs" textLength="58" x="26" y="88.5449">void pop ()</text><!--MD5=[ea775af43a0da7cb543d6bee4ab62c40]
class Vector--><rect fill="#FEFECE" filter="url(#fwnzpmc80whcx)" height="73.9102" id="Vector" style="stroke: #A80036; stroke-width: 1.5;" width="121" x="131.5" y="14.5"/><ellipse cx="169.9" cy="30.5" fill="#ADD1B2" rx="11" ry="11" style="stroke: #A80036; stroke-width: 1.0;"/><path d="M172.3731,36.6431 Q171.7921,36.9419 171.1529,37.0913 Q170.5138,37.2407 169.8082,37.2407 Q167.3014,37.2407 165.9815,35.5889 Q164.6617,33.937 164.6617,30.8159 Q164.6617,27.6865 165.9815,26.0347 Q167.3014,24.3828 169.8082,24.3828 Q170.5138,24.3828 171.1612,24.5322 Q171.8087,24.6816 172.3731,24.9805 L172.3731,27.7031 Q171.7423,27.1221 171.1488,26.8523 Q170.5553,26.5825 169.9244,26.5825 Q168.5797,26.5825 167.8949,27.6492 Q167.2101,28.7158 167.2101,30.8159 Q167.2101,32.9077 167.8949,33.9744 Q168.5797,35.041 169.9244,35.041 Q170.5553,35.041 171.1488,34.7712 Q171.7423,34.5015 172.3731,33.9204 Z "/><text fill="#000000" font-family="sans-serif" font-size="12" lengthAdjust="spacingAndGlyphs" textLength="37" x="189.1" y="35.0352">Vector</text><line style="stroke: #A80036; stroke-width: 1.5;" x1="132.5" x2="251.5" y1="46.5" y2="46.5"/><line style="stroke: #A80036; stroke-width: 1.5;" x1="132.5" x2="251.5" y1="54.5" y2="54.5"/><ellipse cx="142.5" cy="65.5" fill="#84BE84" rx="3" ry="3" style="stroke: #038048; stroke-width: 1.0;"/><text fill="#000000" font-family="sans-serif" font-size="11" lengthAdjust="spacingAndGlyphs" textLength="95" x="151.5" y="69.1348">void push_back ()</text><ellipse cx="142.5" cy="78.4551" fill="#84BE84" rx="3" ry="3" style="stroke: #038048; stroke-width: 1.0;"/><text fill="#000000" font-family="sans-serif" font-size="11" lengthAdjust="spacingAndGlyphs" textLength="89" x="151.5" y="82.0898">void pop_back ()</text><!--MD5=[bc2609a60fd085353115295fb3730a30]
reverse link Stack to Vector--><path d="M109.36,51.5 C116.69,51.5 124.02,51.5 131.35,51.5 " fill="none" id="Stack&lt;-Vector" style="stroke: #A80036; stroke-width: 1.0;"/><polygon fill="#A80036" points="96.16,51.5,102.16,55.5,108.16,51.5,102.16,47.5,96.16,51.5" style="stroke: #A80036; stroke-width: 1.0;"/><text fill="#000000" font-family="sans-serif" font-size="13" lengthAdjust="spacingAndGlyphs" textLength="8" x="115.4708" y="48.1787">1</text><!--MD5=[b034f31507fdb509415845b6654f4363]
@startuml
Stack *- "1" Vector

class Vector {
    + void push_back ()
    + void pop_back ()
    }

class Stack {
    - Vector _c
    + void push ()
    + void pop ()
    }

@enduml

PlantUML version 1.2020.07(Sun Apr 19 06:42:40 CDT 2020)
(GPL source distribution)
Java Runtime: OpenJDK Runtime Environment
JVM: OpenJDK 64-Bit Server VM
Java Version: 13.0.2+8
Operating System: Mac OS X
Default Encoding: UTF-8
Language: en
Country: US
--></g></svg>